# xmcd CD database file
#
# Track frame offsets:
#	150
#	19932
#	41375
#	49757
#	72350
#	86290
#	102805
#	110595
#	127150
#	142185
#	167172
#	183590
#
# Disc length: 2654 seconds
#
# Revision: 3
# Processed by: cddbd v1.5.2PL0 Copyright (c) Steve Scherf et al.
# Submitted via: CDex 1.51
#
DISCID=a90a5c0c
DTITLE=Greg DOUGLASS - Maelstrom
DYEAR=1993
DGENRE=Blues
TTITLE0=Police Dog Blues
TTITLE1=Maelstrom
TTITLE2=Breather
TTITLE3=Drugs and Alcohol
TTITLE4=Bad Talkin' Blues Man
TTITLE5=The Irish Tune
TTITLE6=Recovery Rag
TTITLE7=Parchman Farm
TTITLE8=Wailing Wall
TTITLE9=Poor Boy
TTITLE10=Can't Be Satisfied
TTITLE11=Shelly's Song
EXTD=YEAR: 1993
EXTT0=
EXTT1=
EXTT2=
EXTT3=
EXTT4=
EXTT5=
EXTT6=
EXTT7=
EXTT8=
EXTT9=
EXTT10=
EXTT11=
PLAYORDER=
